<mxfile host="app.diagrams.net" modified="2024-05-15T13:31:34.861Z" agent="Mozilla/5.0 (Windows NT 10.0; Win64; x64) AppleWebKit/537.36 (KHTML, like Gecko) Chrome/124.0.0.0 Safari/537.36" etag="ER4RPMIuJ48n4s9w4-oh" version="24.4.0" type="device">
  <diagram name="Page-1" id="yFXiGLZNQsuKM0-k-p2q">
    <mxGraphModel dx="1909" dy="2140" grid="1" gridSize="10" guides="1" tooltips="1" connect="1" arrows="1" fold="1" page="1" pageScale="1" pageWidth="850" pageHeight="1100" math="0" shadow="0">
      <root>
        <mxCell id="0" />
        <mxCell id="1" parent="0" />
        <mxCell id="TLOzMxI9XmvJv_vvaYOj-5" value="" style="verticalLabelPosition=bottom;verticalAlign=top;html=1;shadow=0;dashed=0;strokeWidth=1;shape=mxgraph.android.phone2;fillColor=#5D7F99;strokeColor=#D0CEE2;fontColor=#1A1A1A;labelBackgroundColor=none;rounded=0;" vertex="1" parent="1">
          <mxGeometry x="60" y="143.1" width="140" height="260" as="geometry" />
        </mxCell>
        <mxCell id="TLOzMxI9XmvJv_vvaYOj-8" value="" style="aspect=fixed;pointerEvents=1;shadow=0;dashed=0;html=1;strokeColor=#D0CEE2;labelPosition=center;verticalLabelPosition=bottom;verticalAlign=top;align=center;fillColor=#5D7F99;shape=mxgraph.azure.server_rack;fontColor=#1A1A1A;labelBackgroundColor=none;rounded=0;" vertex="1" parent="1">
          <mxGeometry x="410" y="240" width="130" height="130" as="geometry" />
        </mxCell>
        <mxCell id="TLOzMxI9XmvJv_vvaYOj-9" value="" style="shape=image;html=1;verticalAlign=top;verticalLabelPosition=bottom;labelBackgroundColor=none;imageAspect=0;aspect=fixed;image=https://cdn2.iconfinder.com/data/icons/whcompare-isometric-web-hosting-servers/50/cloud-server-128.png;fillColor=#5D7F99;strokeColor=#D0CEE2;fontColor=#1A1A1A;rounded=0;" vertex="1" parent="1">
          <mxGeometry x="410" y="-66.9" width="130" height="130" as="geometry" />
        </mxCell>
        <mxCell id="TLOzMxI9XmvJv_vvaYOj-15" value="" style="html=1;verticalLabelPosition=bottom;align=center;labelBackgroundColor=none;verticalAlign=top;strokeWidth=2;strokeColor=#D0CEE2;shadow=0;dashed=0;shape=mxgraph.ios7.icons.data;fillColor=#5D7F99;fontColor=#1A1A1A;rounded=0;" vertex="1" parent="1">
          <mxGeometry x="760" y="190" width="140" height="230" as="geometry" />
        </mxCell>
        <mxCell id="TLOzMxI9XmvJv_vvaYOj-18" value="" style="dashed=0;outlineConnect=0;html=1;align=center;labelPosition=center;verticalLabelPosition=bottom;verticalAlign=top;shape=mxgraph.weblogos.mongodb;labelBackgroundColor=none;fillColor=#5D7F99;strokeColor=#D0CEE2;fontColor=#1A1A1A;rounded=0;" vertex="1" parent="1">
          <mxGeometry x="809.4" y="280" width="41.2" height="86.2" as="geometry" />
        </mxCell>
        <mxCell id="TLOzMxI9XmvJv_vvaYOj-20" value="" style="aspect=fixed;pointerEvents=1;shadow=0;dashed=0;html=1;strokeColor=#D0CEE2;labelPosition=center;verticalLabelPosition=bottom;verticalAlign=top;align=center;fillColor=#5D7F99;shape=mxgraph.azure.server_rack;fontColor=#1A1A1A;labelBackgroundColor=none;rounded=0;" vertex="1" parent="1">
          <mxGeometry x="410" y="520" width="130" height="130" as="geometry" />
        </mxCell>
        <mxCell id="TLOzMxI9XmvJv_vvaYOj-21" value="" style="shape=flexArrow;endArrow=classic;startArrow=classic;html=1;rounded=0;strokeColor=#314354;labelBackgroundColor=none;fontColor=default;fillColor=#647687;" edge="1" parent="1">
          <mxGeometry width="100" height="100" relative="1" as="geometry">
            <mxPoint x="210" y="200" as="sourcePoint" />
            <mxPoint x="410" y="80" as="targetPoint" />
          </mxGeometry>
        </mxCell>
        <mxCell id="TLOzMxI9XmvJv_vvaYOj-22" value="" style="shape=flexArrow;endArrow=classic;startArrow=classic;html=1;rounded=0;strokeColor=#314354;labelBackgroundColor=none;fontColor=default;fillColor=#647687;" edge="1" parent="1">
          <mxGeometry width="100" height="100" relative="1" as="geometry">
            <mxPoint x="200" y="290" as="sourcePoint" />
            <mxPoint x="380" y="290" as="targetPoint" />
          </mxGeometry>
        </mxCell>
        <mxCell id="TLOzMxI9XmvJv_vvaYOj-23" value="&lt;b&gt;&lt;font style=&quot;font-size: 21px;&quot;&gt;React Native&lt;/font&gt;&lt;/b&gt;" style="text;html=1;align=center;verticalAlign=middle;whiteSpace=wrap;rounded=0;labelBackgroundColor=none;fontColor=#1A1A1A;" vertex="1" parent="1">
          <mxGeometry x="85" y="410" width="90" height="50" as="geometry" />
        </mxCell>
        <mxCell id="TLOzMxI9XmvJv_vvaYOj-24" value="&lt;b&gt;&lt;font style=&quot;font-size: 21px;&quot;&gt;Application Server&lt;/font&gt;&lt;/b&gt;" style="text;html=1;align=center;verticalAlign=middle;whiteSpace=wrap;rounded=0;labelBackgroundColor=none;fontColor=#1A1A1A;" vertex="1" parent="1">
          <mxGeometry x="420" y="-120" width="90" height="53.1" as="geometry" />
        </mxCell>
        <mxCell id="TLOzMxI9XmvJv_vvaYOj-25" value="&lt;b&gt;&lt;font style=&quot;font-size: 21px;&quot;&gt;Frontend ( Client)&lt;/font&gt;&lt;/b&gt;" style="text;html=1;align=center;verticalAlign=middle;whiteSpace=wrap;rounded=0;labelBackgroundColor=none;fontColor=#1A1A1A;" vertex="1" parent="1">
          <mxGeometry x="85" y="80" width="90" height="50" as="geometry" />
        </mxCell>
        <mxCell id="TLOzMxI9XmvJv_vvaYOj-26" value="&lt;b&gt;&lt;font style=&quot;font-size: 21px;&quot;&gt;Express.js on Google Cloud&lt;/font&gt;&lt;/b&gt;" style="text;html=1;align=center;verticalAlign=middle;whiteSpace=wrap;rounded=0;labelBackgroundColor=none;fontColor=#1A1A1A;" vertex="1" parent="1">
          <mxGeometry x="417.5" y="60" width="115" height="80" as="geometry" />
        </mxCell>
        <mxCell id="TLOzMxI9XmvJv_vvaYOj-27" value="&lt;b&gt;&lt;font style=&quot;font-size: 21px;&quot;&gt;Whisper Server&lt;/font&gt;&lt;/b&gt;" style="text;html=1;align=center;verticalAlign=middle;whiteSpace=wrap;rounded=0;labelBackgroundColor=none;fontColor=#1A1A1A;" vertex="1" parent="1">
          <mxGeometry x="430" y="180" width="90" height="50" as="geometry" />
        </mxCell>
        <mxCell id="TLOzMxI9XmvJv_vvaYOj-30" value="&lt;b&gt;&lt;font style=&quot;font-size: 21px;&quot;&gt;FastAPI on VM&lt;/font&gt;&lt;/b&gt;" style="text;html=1;align=center;verticalAlign=middle;whiteSpace=wrap;rounded=0;labelBackgroundColor=none;fontColor=#1A1A1A;" vertex="1" parent="1">
          <mxGeometry x="430" y="380" width="90" height="50" as="geometry" />
        </mxCell>
        <mxCell id="TLOzMxI9XmvJv_vvaYOj-35" value="&lt;span style=&quot;font-size: 21px;&quot;&gt;&lt;b&gt;LLM Server&lt;/b&gt;&lt;/span&gt;" style="text;html=1;align=center;verticalAlign=middle;whiteSpace=wrap;rounded=0;labelBackgroundColor=none;fontColor=#1A1A1A;" vertex="1" parent="1">
          <mxGeometry x="425" y="460" width="90" height="50" as="geometry" />
        </mxCell>
        <mxCell id="TLOzMxI9XmvJv_vvaYOj-36" value="&lt;span style=&quot;font-size: 21px;&quot;&gt;&lt;b&gt;FastAPI vLLM on VM&lt;/b&gt;&lt;/span&gt;" style="text;html=1;align=center;verticalAlign=middle;whiteSpace=wrap;rounded=0;labelBackgroundColor=none;fontColor=#1A1A1A;" vertex="1" parent="1">
          <mxGeometry x="430" y="670" width="90" height="50" as="geometry" />
        </mxCell>
        <mxCell id="TLOzMxI9XmvJv_vvaYOj-37" value="" style="shape=flexArrow;endArrow=classic;startArrow=classic;html=1;rounded=0;strokeColor=#314354;labelBackgroundColor=none;fontColor=default;fillColor=#647687;" edge="1" parent="1">
          <mxGeometry width="100" height="100" relative="1" as="geometry">
            <mxPoint x="210" y="350" as="sourcePoint" />
            <mxPoint x="400" y="560" as="targetPoint" />
          </mxGeometry>
        </mxCell>
        <mxCell id="TLOzMxI9XmvJv_vvaYOj-39" value="&lt;b&gt;&lt;font style=&quot;font-size: 21px;&quot;&gt;Database&lt;/font&gt;&lt;/b&gt;" style="text;html=1;align=center;verticalAlign=middle;whiteSpace=wrap;rounded=0;labelBackgroundColor=none;fontColor=#1A1A1A;" vertex="1" parent="1">
          <mxGeometry x="785" y="130" width="90" height="50" as="geometry" />
        </mxCell>
        <mxCell id="TLOzMxI9XmvJv_vvaYOj-40" value="&lt;b&gt;&lt;font style=&quot;font-size: 21px;&quot;&gt;MongoDB Atlas&lt;/font&gt;&lt;/b&gt;" style="text;html=1;align=center;verticalAlign=middle;whiteSpace=wrap;rounded=0;labelBackgroundColor=none;fontColor=#1A1A1A;" vertex="1" parent="1">
          <mxGeometry x="785" y="420" width="90" height="50" as="geometry" />
        </mxCell>
        <mxCell id="TLOzMxI9XmvJv_vvaYOj-41" value="" style="shape=flexArrow;endArrow=classic;startArrow=classic;html=1;rounded=0;strokeColor=#314354;labelBackgroundColor=none;fontColor=default;fillColor=#647687;" edge="1" parent="1">
          <mxGeometry width="100" height="100" relative="1" as="geometry">
            <mxPoint x="550" y="80" as="sourcePoint" />
            <mxPoint x="730" y="200" as="targetPoint" />
          </mxGeometry>
        </mxCell>
      </root>
    </mxGraphModel>
  </diagram>
</mxfile>
